<?xml version="1.0" encoding="UTF-8" standalone="no"?>
<!DOCTYPE svg PUBLIC "-//W3C//DTD SVG 1.1//EN" "http://www.w3.org/Graphics/SVG/1.1/DTD/svg11.dtd">
<svg width="100%" height="100%" viewBox="0 0 1499 1186" version="1.1" xmlns="http://www.w3.org/2000/svg" xmlns:xlink="http://www.w3.org/1999/xlink" xml:space="preserve" xmlns:serif="http://www.serif.com/" style="fill-rule:evenodd;clip-rule:evenodd;stroke-linejoin:round;stroke-miterlimit:2;">
    <rect id="Artboard1" x="0" y="0" width="1498.73" height="1185.62" style="fill:none;"/>
    <clipPath id="_clip1">
        <rect x="0" y="0" width="1498.73" height="1185.62"/>
    </clipPath>
    <g clip-path="url(#_clip1)">
        <path d="M219.07,966.675c-74.902,-31.761 -155.58,-76.862 -178.236,-156.767c-18.901,-66.666 8.941,-137.109 38.963,-199.321c85.396,-176.947 202.788,-350.945 378.713,-430.676c53.738,-24.355 111.119,-38.991 168.474,-52.015c60.573,-13.755 122.084,-25.903 184.103,-24.48c95.713,2.196 187.632,36.453 277.52,70.297c53.299,20.067 108.136,41.086 149.674,80.822c40.981,39.203 65.209,92.984 88.441,145.321c23.962,53.985 47.926,107.968 71.891,161.953c23.464,52.863 47.326,107.34 50.061,165.369c4.274,90.731 -45.641,178.049 -115.455,233.812c-69.817,55.764 -157.246,83.577 -244.569,97.983c-87.325,14.406 -176.112,16.482 -263.98,26.813c-104.517,12.284 -195.464,25.586 -295.023,-13.888c-101.557,-40.27 -209.196,-62.238 -310.577,-105.223Z" style="fill:#fcf4f9;fill-rule:nonzero;"/>
        <path d="M1273.23,867.25c-55.382,-7.113 -110.546,-15.797 -165.772,-24.021c-63.152,-9.403 -126.401,-18.203 -189.82,-25.596c-192.613,-22.46 -392.339,-31.229 -576.047,30.856c-65.598,22.167 -127.447,52.802 -187.996,86.418c21.26,12.078 43.607,22.498 65.471,31.768c101.381,42.985 209.02,64.953 310.577,105.223c99.559,39.474 190.506,26.172 295.023,13.888c87.868,-10.331 176.655,-12.407 263.98,-26.813c87.323,-14.406 174.752,-42.219 244.569,-97.983c27.779,-22.188 52.392,-49.385 71.71,-79.795c-43.993,-3.695 -87.906,-8.317 -131.695,-13.945Z" style="fill:#646db3;fill-rule:nonzero;"/>
        <path d="M783.108,422.114c38.085,9.39 77.636,15.452 116.531,10.369c50.124,-6.551 95.785,-31.017 142.571,-50.158c79.833,-32.658 165.709,-49.55 251.909,-51.05c-15.205,-28.272 -32.894,-54.792 -55.838,-76.74c-41.538,-39.736 -96.375,-60.755 -149.674,-80.822c-89.888,-33.844 -181.807,-68.101 -277.52,-70.297c-62.019,-1.423 -123.53,10.725 -184.103,24.48c-57.355,13.024 -114.736,27.66 -168.474,52.015c-29.853,13.528 -58.012,29.779 -84.623,48.289c53.203,30.69 106.262,61.708 160.233,90.776c79.307,42.714 161.526,81.58 248.988,103.138Z" style="fill:#fdfeff;fill-rule:nonzero;"/>
        <path d="M886.047,729.885c2.923,-3.036 5.714,-6.115 8.361,-9.223l-8.361,9.223Z" style="fill:#e1d4e9;fill-rule:nonzero;"/>
        <path d="M861.569,734.43l32.944,-13.895c13.156,-15.457 22.933,-31.499 29.369,-44.859c-14.929,-5.555 -44.787,3.286 -44.787,3.286c29.409,-11.392 40.191,-11.647 49.848,-15.335c7.54,-20.715 3.043,-45.507 2.203,-66.265c-30.077,21.25 -39.042,24.425 -39.042,24.425c19.152,-10.934 28.656,-24.408 38.483,-33.343c-4.234,-51.988 -24.027,-71.41 -24.027,-71.41c-14.228,6.576 -43.054,25.464 -54.448,32.313c-2.465,23.756 -0.392,54.35 -0.392,54.35c-4.408,-14.434 -6.035,-35.092 -6.623,-49.997c-16.213,10.346 -13.422,8.851 -24.386,19.971c-3.459,24.099 2.575,67.465 2.575,67.465c-6.494,-17.173 -9.676,-43.659 -11.015,-58.288c-17.629,20.588 -28.071,42.658 -34.636,66.721c4.298,21.696 11.252,43.798 11.252,43.798c-5.243,-9.246 -9.997,-21.643 -13.851,-33.325c-6.23,27.777 -8.157,58.168 -10.555,91.897l6.917,30.146l40.417,-6.799c30.462,-8.166 55.067,-25.589 73.975,-45.14l-24.221,4.284Z" style="fill:#e1d4e9;fill-rule:nonzero;"/>
        <path d="M814.392,728.301c-5.263,8.49 -10.801,16.83 -16.897,24.785c-6.076,7.957 -12.819,15.51 -20.768,21.91l-0.403,-0.403c7.632,-6.633 14.017,-14.361 19.746,-22.489c5.742,-8.128 10.921,-16.623 15.833,-25.272c9.88,-17.269 18.731,-35.128 27.516,-53.025c8.803,-17.891 17.031,-36.114 26.784,-53.554c4.867,-8.718 9.88,-17.367 15.272,-25.79c5.352,-8.442 11.097,-16.659 17.36,-24.492l0.485,0.314c-9.839,17.367 -19.021,34.991 -28.041,52.745c-8.973,17.77 -18.517,35.267 -27.775,52.941c-9.304,17.646 -18.69,35.277 -29.112,52.33Z" style="fill:#fcf4f9;fill-rule:nonzero;"/>
        <path d="M878.713,355.388c3.014,-2.484 5.942,-5.016 8.764,-7.572l-8.764,7.572Z" style="fill:#e1d4e9;fill-rule:nonzero;"/>
        <path d="M858.699,358.483l28.888,-10.77c14.03,-12.726 25.599,-26.047 33.921,-37.201c-10.112,-5.191 -35.353,1.387 -35.353,1.387c25.536,-8.757 33.913,-8.637 42.284,-11.469c11.02,-17.364 13.784,-38.574 18.353,-56.238c-28.526,17.113 -36.234,19.529 -36.234,19.529c17.511,-8.689 28.224,-19.841 38.046,-27.127c9.806,-44.312 -0.571,-61.437 -0.571,-61.437c-12.623,5.143 -39.591,20.288 -50.095,25.752c-7.871,20.108 -13.965,46.172 -13.965,46.172c0.228,-12.404 4.169,-30.012 7.464,-42.694c-15.102,8.281 -12.573,7.098 -23.823,16.205c-8.723,20.37 -14.974,57.41 -14.974,57.41c-0.689,-14.794 3.518,-37.405 6.16,-49.877c-18.764,16.94 -32.361,35.368 -43.472,55.61c-2.141,18.572 -2.338,37.574 -2.338,37.574c-1.713,-8.023 -2.263,-18.709 -2.298,-28.755c-11.786,23.408 -20.91,49.172 -31.238,77.76l-2.247,25.836l32.87,-4.511c25.534,-5.983 48.884,-20.017 68.372,-36.033l-19.75,2.877Z" style="fill:#e1d4e9;fill-rule:nonzero;"/>
        <path d="M823.876,351.795c-6.194,7.048 -12.561,13.962 -19.261,20.53c-6.683,6.571 -13.779,12.777 -21.516,17.965l-0.209,-0.355c7.55,-5.395 14.413,-11.761 20.873,-18.49c6.473,-6.725 12.602,-13.782 18.56,-20.977c11.956,-14.362 23.268,-29.263 34.543,-44.196c11.283,-14.927 22.207,-30.154 34.11,-44.665c5.942,-7.259 11.982,-14.451 18.255,-21.44c6.247,-7.007 12.743,-13.808 19.541,-20.266l0.293,0.281c-11.951,14.449 -23.458,29.138 -34.878,43.94c-11.382,14.819 -23.136,29.39 -34.715,44.117c-11.61,14.701 -23.278,29.393 -35.596,43.556Z" style="fill:#fcf4f9;fill-rule:nonzero;"/>
        <path d="M898.166,848.506c33.22,-2.189 47.386,-0.852 58.141,-4.363c12.594,-22.296 19.967,-46.054 23.982,-68.859c-35.805,21.638 -62.457,18.948 -62.457,18.948c26.856,-3.023 51.816,-19.505 63.985,-28.761c7.883,-57.235 -4.003,-105.955 -4.003,-105.955c-16.121,6.424 -30.729,13.072 -44.012,19.954c-8.108,25.908 -13.177,59.568 -13.177,59.568c-1.123,-16.069 2.069,-38.807 4.97,-55.183c-19.042,10.448 -35.195,21.434 -49.039,33.021c-9.208,26.234 -13.225,74.112 -13.225,74.112c-2.614,-19.184 0.352,-48.404 2.421,-64.516c-22.899,21.598 -38.783,45.224 -51.166,71.245c-0.698,24.024 1.227,48.643 1.227,48.643c-3.194,-10.429 -5.15,-24.285 -6.353,-37.304c-12.91,30.11 -22.032,63.325 -32.418,100.176l-0,33.436l43.001,-5.224c64.017,-14.053 103.846,-44.535 128.247,-80.369c-13.986,-6.916 -50.124,-8.569 -50.124,-8.569Z" style="fill:#9cb1db;fill-rule:nonzero;"/>
        <path d="M783.85,934.722c9.376,-6.849 17.734,-14.969 25.514,-23.565c7.795,-8.594 15.097,-17.624 22.16,-26.835c14.178,-18.389 27.446,-37.482 40.654,-56.62c13.223,-19.129 25.935,-38.658 40.026,-57.237c7.037,-9.294 14.205,-18.498 21.709,-27.437c7.468,-8.963 15.282,-17.652 23.542,-25.896l0.422,0.372c-14.161,18.5 -27.708,37.317 -41.127,56.282c-13.37,18.99 -27.259,37.646 -40.895,56.515c-13.681,18.831 -27.441,37.648 -42.123,55.771c-7.392,9.018 -15.023,17.854 -23.139,26.241c-8.097,8.39 -16.779,16.297 -26.424,22.875l-0.319,-0.466Z" style="fill:#6985c3;fill-rule:nonzero;"/>
        <path d="M446.017,663.478c-1.286,-3.422 -2.64,-6.77 -4.058,-10.033l4.058,10.033Z" style="fill:#e1d4e9;fill-rule:nonzero;"/>
        <path d="M441.892,682.835l0.009,-29.52c-7.062,-16.208 -15.553,-30.285 -23.138,-40.803c-8.453,8.092 -11.133,33.174 -11.133,33.174c0.73,-25.903 3.792,-33.649 4.065,-42.133c-12.495,-14.576 -31.516,-22.452 -46.565,-31.113c6.098,30.77 5.661,38.531 5.661,38.531c-2.028,-18.435 -8.774,-31.173 -12.186,-42.118c-38.327,-20.19 -58.125,-14.841 -58.125,-14.841c0.406,13.007 5.196,41.838 6.652,52.959c16.187,12.342 38.617,24.521 38.617,24.521c-11.615,-3.319 -26.827,-11.38 -37.626,-17.612c2.494,16.093 2.268,13.45 6.897,26.172c16.136,13.198 48.857,28.271 48.857,28.271c-14.19,-3.064 -34.026,-12.625 -44.856,-18.2c9.368,21.661 21.96,38.898 37.136,54.281c16.758,6.633 34.603,11.572 34.603,11.572c-8.169,-0.416 -18.436,-2.58 -27.922,-5.061c17.924,16.8 39.004,31.72 62.325,48.465l23.566,8.548l7.314,-31.645c3.345,-25.21 -1.67,-50.401 -9.918,-72.505l-4.233,19.057Z" style="fill:#e1d4e9;fill-rule:nonzero;"/>
        <path d="M423.329,713.499c4.469,7.516 8.747,15.152 12.585,23.019c3.842,7.852 7.197,15.994 9.366,24.475l-0.408,0.106c-2.431,-8.361 -6.019,-16.328 -10.089,-24.01c-4.062,-7.691 -8.56,-15.15 -13.249,-22.481c-9.335,-14.696 -19.402,-28.93 -29.515,-43.134c-10.103,-14.214 -20.616,-28.166 -30.11,-42.848c-4.754,-7.336 -9.409,-14.744 -13.789,-22.315c-4.408,-7.56 -8.538,-15.289 -12.234,-23.218l0.37,-0.202c9.419,14.711 19.217,29.071 29.155,43.379c9.968,14.278 19.567,28.84 29.38,43.277c9.777,14.459 19.522,28.968 28.538,43.952Z" style="fill:#fcf4f9;fill-rule:nonzero;"/>
        <path d="M429.062,806.111c8.44,-30.05 14.046,-42.152 14.298,-52.756c-15.774,-18.095 -34.473,-32.025 -53.376,-42.7c7.946,38.406 -2.752,61.125 -2.752,61.125c5.711,-24.682 -1.061,-51.89 -5.443,-65.538c-48.127,-24.838 -94.904,-29.543 -94.904,-29.543c0.646,16.256 1.958,31.24 3.895,45.132c20.369,15.255 48.538,30.247 48.538,30.247c-14.552,-4.027 -33.657,-13.948 -47.225,-21.624c3.287,20.093 7.955,37.801 13.875,53.658c20.312,16.329 61.377,34.828 61.377,34.828c-17.773,-3.678 -42.67,-15.425 -56.268,-22.284c11.939,26.983 27.862,48.401 46.995,67.472c21.02,8.119 43.381,14.104 43.381,14.104c-10.216,-0.432 -23.074,-3.029 -34.958,-6.031c22.582,20.813 49.095,39.246 78.425,59.932l29.553,10.441l8.81,-39.641c7.566,-60.972 -6.94,-105.699 -30.993,-138.453c-10.48,10.204 -23.228,41.631 -23.228,41.631Z" style="fill:#9cb1db;fill-rule:nonzero;"/>
        <path d="M469.578,934.077c-3.127,-10.427 -7.694,-20.353 -12.865,-29.911c-5.162,-9.573 -10.864,-18.85 -16.799,-27.967c-11.826,-18.277 -24.562,-35.963 -37.355,-53.613c-12.779,-17.663 -26.069,-34.996 -38.091,-53.254c-6.019,-9.119 -11.918,-18.329 -17.476,-27.753c-5.589,-9.4 -10.83,-19.023 -15.536,-28.896l0.461,-0.257c11.927,18.294 24.331,36.143 36.904,53.926c12.611,17.746 24.765,35.85 37.187,53.793c12.373,17.974 24.708,36.011 36.14,54.65c5.664,9.347 11.092,18.85 15.973,28.644c4.886,9.774 9.163,19.918 11.966,30.499l-0.509,0.139Z" style="fill:#6985c3;fill-rule:nonzero;"/>
        <path d="M834.833,241.646c17.043,-20.437 25.159,-28.375 29.628,-35.949c-1.598,-15.061 -6.556,-27.521 -12.959,-37.669c-11.128,28.593 -26.469,43.476 -26.469,43.476c13.304,-16.949 20.539,-37.357 23.606,-47.722c-17.252,-24.168 -41.936,-33.719 -41.936,-33.719c-6.254,11.745 -11.612,22.668 -16.172,32.884c5.366,13.631 15.279,28.102 15.279,28.102c-6.635,-4.809 -13.458,-14.447 -18.046,-21.742c-6.316,14.845 -10.876,28.161 -13.971,40.316c4.897,14.391 20.712,33.081 20.712,33.081c-8.608,-4.987 -17.982,-16.698 -22.918,-23.41c-4.204,20.929 -3.878,38.392 -0.765,54.595c8.646,8.596 18.924,15.841 18.924,15.841c-5.634,-1.658 -11.888,-5.22 -17.422,-8.942c4.363,17.907 11.929,34.629 20.18,53.338l12.553,11.389l21.161,-27.271c29.148,-42.73 39.119,-76.721 38.788,-103.39c-10.12,5.935 -30.173,26.792 -30.173,26.792Z" style="fill:#9cb1db;fill-rule:nonzero;"/>
        <path d="M805.736,338.772c2.469,-7.891 3.916,-15.611 4.869,-23.151c0.967,-7.547 1.502,-14.951 1.843,-22.275c0.72,-14.667 0.684,-29.032 0.602,-43.383c-0.072,-14.353 -0.568,-28.538 0.034,-43.22c0.293,-7.336 0.691,-14.72 1.37,-22.212c0.651,-7.48 1.589,-15.073 2.935,-22.774l0.367,-0.125c-0.669,14.697 -0.887,29.136 -0.981,43.547c-0.06,14.393 -0.523,28.982 -0.773,43.491c-0.285,14.523 -0.619,29.087 -1.713,43.964c-0.588,7.451 -1.373,14.986 -2.587,22.654c-1.205,7.655 -2.904,15.495 -5.62,23.453l-0.346,0.031Z" style="fill:#6985c3;fill-rule:nonzero;"/>
        <path d="M769.845,227.504l-24.427,-0c34.403,-0 62.291,27.888 62.291,62.291l-0,601.573c-0,34.403 -27.888,62.291 -62.291,62.291l24.427,0c34.403,0 62.291,-27.888 62.291,-62.291l-0,-601.573c-0,-34.403 -27.888,-62.291 -62.291,-62.291Z" style="fill:#19174c;fill-rule:nonzero;"/>
        <path d="M745.418,953.659l-254.542,0c-34.403,0 -62.291,-27.888 -62.291,-62.291l-0,-601.573c-0,-34.403 27.888,-62.291 62.291,-62.291l254.542,-0c34.403,-0 62.291,27.888 62.291,62.291l-0,601.573c-0,34.403 -27.888,62.291 -62.291,62.291Z" style="fill:#2b3486;fill-rule:nonzero;"/>
        <path d="M774.505,871.428l-312.719,0c-9.979,0 -18.068,-8.089 -18.068,-18.068l-0,-562.905c-0,-9.981 8.089,-18.071 18.068,-18.071l312.719,0c9.981,0 18.071,8.09 18.071,18.071l-0,562.905c-0,9.979 -8.09,18.068 -18.071,18.068Z" style="fill:#fff;fill-rule:nonzero;"/>
        <path d="M652.114,258.118l-67.935,-0c-3.753,-0 -6.794,-3.043 -6.794,-6.794c0,-3.753 3.041,-6.794 6.794,-6.794l67.935,0c3.754,0 6.794,3.041 6.794,6.794c0,3.751 -3.04,6.794 -6.794,6.794Z" style="fill:#b4b6dc;fill-rule:nonzero;"/>
        <path d="M638.496,927.698l-40.696,0c-9.419,0 -17.055,-7.636 -17.055,-17.055c-0,-9.419 7.636,-17.055 17.055,-17.055l40.696,-0c9.416,-0 17.052,7.636 17.052,17.055c0,9.419 -7.636,17.055 -17.052,17.055Z" style="fill:#b4b6dc;fill-rule:nonzero;"/>
        <rect x="487.041" y="313.113" width="271.374" height="39.719" style="fill:#b4b6dc;fill-rule:nonzero;"/>
        <rect x="487.041" y="396.15" width="271.374" height="39.719" style="fill:#b4b6dc;fill-rule:nonzero;"/>
        <rect x="487.041" y="479.187" width="179.138" height="39.719" style="fill:#b4b6dc;fill-rule:nonzero;"/>
        <path d="M923.735,949.795c-0.926,4.79 -1.113,9.981 1.236,14.171c4.833,8.63 17.264,8.819 27.226,6.938c27.093,-5.119 52.917,-17.48 80.337,-19.496c20.182,-1.488 40.242,2.729 60.446,1.965c20.206,-0.763 42.327,-8.089 52.519,-25.641c4.163,-7.171 5.488,-17.243 -0.557,-22.63c-3.547,-3.163 -8.668,-3.854 -13.477,-4.25c-44.89,-3.691 -89.474,6.583 -134.263,9.35c-14.6,0.902 -29.073,-5.395 -42.925,1.036c-15.325,7.123 -27.381,22.193 -30.542,38.557Z" style="fill:#5c67b0;fill-rule:nonzero;"/>
        <path d="M822.206,693.12l-243.15,140.385c-12.695,7.326 -28.93,2.978 -36.259,-9.717l-77.988,-135.081c-7.331,-12.695 -2.982,-28.929 9.715,-36.258l243.15,-140.385c12.697,-7.329 28.929,-2.978 36.258,9.717l77.99,135.081c7.329,12.695 2.978,28.929 -9.716,36.258Z" style="fill:#5667b0;fill-rule:nonzero;"/>
        <path d="M554.909,668.141c-2.498,1.445 -3.36,4.653 -1.915,7.154l4.478,7.756l17.885,-10.326l-7.096,-12.29l-13.352,7.706Z" style="fill:#f4b67d;fill-rule:nonzero;"/>
        <path d="M533.088,697.13l-7.096,-12.291l-18.342,10.59l7.096,12.289l18.342,-10.588Z" style="fill:#f4b67d;fill-rule:nonzero;"/>
        <path d="M544.17,711.241l19.983,-11.536l-13.36,-23.141c-2.145,-3.715 -0.868,-8.478 2.844,-10.624l13.348,-7.703c-4.291,-7.247 -13.621,-9.712 -20.936,-5.491l-26.738,15.438l24.859,43.057Z" style="fill:#f4b67d;fill-rule:nonzero;"/>
        <path d="M558.741,685.251l7.613,13.182l4.557,-2.627c7.309,-4.224 9.841,-13.538 5.709,-20.876l-17.879,10.321Z" style="fill:#f4b67d;fill-rule:nonzero;"/>
        <path d="M524.72,682.636l-7.61,-13.182l-5.011,2.894c-7.312,4.221 -9.841,13.534 -5.711,20.875l18.332,-10.587Z" style="fill:#f4b67d;fill-rule:nonzero;"/>
        <path d="M534.357,699.331l-18.332,10.585c4.291,7.245 13.622,9.712 20.934,5.491l5.01,-2.894l-7.612,-13.182Z" style="fill:#f4b67d;fill-rule:nonzero;"/>
        <path d="M741.784,568.445c-6.745,-11.682 -21.684,-15.685 -33.364,-8.94c-11.682,6.744 -15.685,21.682 -8.939,33.365c6.743,11.679 21.682,15.682 33.362,8.939c11.682,-6.746 15.685,-21.682 8.941,-33.364Z" style="fill:#f4b67d;fill-rule:nonzero;"/>
        <path d="M715.504,583.616c-6.743,-11.68 -21.682,-15.683 -33.364,-8.939c-11.679,6.746 -15.682,21.682 -8.939,33.364c6.746,11.682 21.682,15.685 33.364,8.939c11.682,-6.743 15.683,-21.682 8.939,-33.364Z" style="fill:#fdd8b1;fill-rule:nonzero;"/>
        <path d="M568.929,767.926l-14.56,8.402l-8.404,-14.557l14.557,-8.407l8.407,14.562Z" style="fill:#f4b67d;fill-rule:nonzero;"/>
        <path d="M665.188,754.475l-92.578,53.448l-8.402,-14.557l92.576,-53.448l8.404,14.557Z" style="fill:#f4b67d;fill-rule:nonzero;"/>
        <path d="M594.935,752.911l-14.56,8.404l-8.404,-14.56l14.557,-8.406l8.407,14.562Z" style="fill:#f4b67d;fill-rule:nonzero;"/>
        <path d="M620.941,737.895l-14.559,8.404l-8.404,-14.559l14.557,-8.404l8.406,14.559Z" style="fill:#f4b67d;fill-rule:nonzero;"/>
        <path d="M646.948,722.88l-14.56,8.406l-8.404,-14.559l14.557,-8.404l8.407,14.557Z" style="fill:#f4b67d;fill-rule:nonzero;"/>
        <path d="M672.954,707.864l-14.559,8.407l-8.404,-14.56l14.557,-8.404l8.406,14.557Z" style="fill:#f4b67d;fill-rule:nonzero;"/>
        <path d="M737.515,670.589l-14.557,8.406l-8.406,-14.559l14.557,-8.404l8.406,14.557Z" style="fill:#f4b67d;fill-rule:nonzero;"/>
        <path d="M758.669,658.379l-14.562,8.404l-8.404,-14.557l14.56,-8.407l8.406,14.56Z" style="fill:#f4b67d;fill-rule:nonzero;"/>
        <path d="M779.818,646.166l-14.557,8.404l-8.406,-14.557l14.557,-8.406l8.406,14.559Z" style="fill:#f4b67d;fill-rule:nonzero;"/>
        <path d="M896.541,401.545c3.765,7.331 3.074,17.47 9.834,22.551c6.761,5.078 16.494,6.93 24.202,3.297c0.538,5.419 1.478,9.369 1.14,15.126c-0.324,5.498 10.499,16.059 16.117,15.205c5.342,-0.811 10.391,-12.669 11.783,-17.672c1.389,-5.001 0.609,-10.31 -0.523,-15.373c-3.391,-15.143 -10.245,-30.115 -22.455,-40.278c-9.429,-7.85 -31.034,-21.596 -43.597,-19.498c-13.755,2.296 -1.723,26.484 3.499,36.642Z" style="fill:#f4b67d;fill-rule:nonzero;"/>
        <path d="M810.862,575.918c-0,-0 -20.847,0.333 -29.733,1.495c-6.878,0.897 -9.405,3.642 -9.405,3.642c-0,0 -0.619,5.453 12.433,4.5c6.568,-0.48 7.953,2.352 7.953,2.352l6.556,11.353c0,0 13.521,-9.779 16.909,-13.705c3.391,-3.926 -4.713,-9.637 -4.713,-9.637Z" style="fill:#f4b67d;fill-rule:nonzero;"/>
        <path d="M923.15,440.078c-6.254,2.94 -21.43,11.766 -24.732,17.696c-4.478,8.037 -23.137,71.588 -25.452,74.564c-2.314,2.973 -64.713,43.803 -64.713,43.803l7.322,9.414c0,0 67.206,-26.611 80.529,-35.699c8.568,-5.846 23.194,-50.95 23.194,-50.95c0,0 8.987,-28.149 9.285,-34.976c0.295,-6.828 -5.433,-23.852 -5.433,-23.852Z" style="fill:#f04f47;fill-rule:nonzero;"/>
        <path d="M923.15,440.078c8.38,-4.771 8.449,-3.943 8.449,-3.943c2.112,14.862 15.74,18.522 15.74,18.522c9.254,-3.636 13.024,-22.808 13.024,-22.808c0,0 43.566,6.95 54.506,19.062c10.046,11.123 -5.747,54.945 -5.467,74.16c0.219,15.023 14.308,49.157 13.965,72.053c-27.437,7.603 -73.054,1.651 -73.054,1.651c-0,0 -0,-20.491 -2.974,-34.045c-2.975,-13.552 -15.74,-29.75 -15.74,-29.75c-40.383,-20.475 -4.511,-67.019 -8.449,-94.902Z" style="fill:#f15b55;fill-rule:nonzero;"/>
        <path d="M1088.59,905.414l3.986,6.815c-0,0 15.216,-4.23 14.194,-6.815c-1.288,-3.261 -4.948,-8.358 -4.948,-8.358l-13.232,8.358Z" style="fill:#fdd8b1;fill-rule:nonzero;"/>
        <path d="M985.362,913.849l0.04,7.898c0,-0 15.294,3.945 15.702,1.193c0.514,-3.468 -0.108,-9.712 -0.108,-9.712l-15.634,0.621Z" style="fill:#fdd8b1;fill-rule:nonzero;"/>
        <path d="M1000.96,940.775l-10.262,0.189l-2.98,-6.203c-0,-0 -22.215,13.059 -34.54,7.574c-12.321,-5.484 -12.398,-13.475 -12.398,-13.475c0,-0 8.632,3.76 13.895,1.704c5.265,-2.055 25.416,-8.882 30.724,-8.817c5.309,0.065 13.53,3.268 16.163,-0.655c-0,-0 2.412,15.514 -0.602,19.683Z" style="fill:#19174c;fill-rule:nonzero;"/>
        <path d="M950.313,598.775c-0,0 -23.972,55.26 12.935,186.17c-0,0 18.629,98.345 22.114,131.071l15.708,-1.07c0,-0 4.654,-105.626 -7.883,-125.124c0,-0 9.693,-94.703 9.026,-107.935c-0,-0 3.988,76.598 21.156,114.2c17.171,37.602 65.217,109.327 65.217,109.327l13.232,-8.358c-0,-0 -32.205,-97.487 -46.743,-112.807c0,0 4.01,-147.159 -31.708,-187.125c-23.223,3.866 -73.054,1.651 -73.054,1.651Z" style="fill:#19174c;fill-rule:nonzero;"/>
        <path d="M1023.55,614.302c0,-0 -0.201,11.214 -4.924,16.501c-4.723,5.289 -7.634,13.23 -7.953,21.185c-0.326,8.152 5.555,8.949 12.697,9.774c6.028,0.701 9.65,-5.33 11.399,-12.728c4.5,-18.994 -1.401,-17.984 1.327,-25.726c2.729,-7.741 3.914,-11.149 3.914,-11.149l-16.46,2.143Z" style="fill:#f4b67d;fill-rule:nonzero;"/>
        <path d="M989.681,444.119c0,0 19.753,-1.327 29.313,10.843c9.563,12.169 36.511,81.28 36.076,87.798c-0.434,6.52 -16.949,89.101 -16.949,89.101l-20.864,-5.215c-0,0 12.606,-76.497 11.3,-83.886c0,-0 -36.944,-58.677 -42.593,-79.104l3.717,-19.537Z" style="fill:#f15b55;fill-rule:nonzero;"/>
        <path d="M883.206,367.423c8.233,23.328 56.605,26.488 69.269,51.818c12.668,25.332 -4.747,44.859 11.613,61.218c16.359,16.36 37.462,17.228 46.45,32.407c8.987,15.178 -2.976,27.23 11.701,37.782c14.677,10.557 53.729,16.89 93.838,-18.469c40.108,-35.36 8.445,-63.479 -5.277,-67.625c-13.722,-4.15 -55.413,2.186 -65.967,-14.176c-10.557,-16.359 7.386,-28.497 -3.696,-46.968c-11.082,-18.471 -51.717,-9.499 -67.551,-25.86c-15.831,-16.36 -16.659,-37.007 -47.799,-37.007c-31.134,-0 -45.747,17.909 -42.581,26.88Z" style="fill:#5667b0;fill-rule:nonzero;"/>
        <path d="M1115.56,920.928l-8.79,5.294l-5.685,-3.882c-0,-0 -12.71,22.418 -26.122,23.829c-13.415,1.414 -17.475,-5.469 -17.475,-5.469c-0,0 9.357,-1.06 12.884,-5.474c3.53,-4.413 17.571,-20.4 22.201,-22.997c4.629,-2.596 13.352,-3.93 13.669,-8.648c-0,-0 9.846,12.231 9.318,17.347Z" style="fill:#19174c;fill-rule:nonzero;"/>
        <path d="M906.546,397.312c-0,1.843 -1.493,3.336 -3.336,3.336c-1.841,-0 -3.333,-1.493 -3.333,-3.336c-0,-1.841 1.492,-3.333 3.333,-3.333c1.843,-0 3.336,1.492 3.336,3.333Z" style="fill:#5667b0;fill-rule:nonzero;"/>
        <path d="M-3.036,399.899c0.94,-0.372 1.972,-0.682 3.098,-0.929c1.123,-0.247 2.231,-0.372 3.319,-0.372c0.568,0 1.113,0.039 1.631,0.113c0.521,0.074 1.016,0.197 1.486,0.369l-0.631,2.191c-0.965,-0.297 -1.956,-0.444 -2.969,-0.444c-0.643,0 -1.286,0.051 -1.932,0.147c-0.643,0.101 -1.286,0.249 -1.929,0.446l-4.048,16.827l-2.407,0l4.382,-18.348Z" style="fill:#58595c;fill-rule:nonzero;"/>
    </g>
</svg>
